<?xml version="1.0" encoding="utf-8"?>
<!-- Generator: Adobe Illustrator 22.0.1, SVG Export Plug-In . SVG Version: 6.00 Build 0)  -->
<svg version="1.1" id="Camada_1" xmlns="http://www.w3.org/2000/svg" xmlns:xlink="http://www.w3.org/1999/xlink" x="0px" y="0px"
	 viewBox="0 0 56.5 71" style="enable-background:new 0 0 56.5 71;" xml:space="preserve">
<style type="text/css">
	.st0{fill:none;stroke:#FFFFFF;stroke-width:2.3;stroke-linejoin:round;}
</style>
<title>icon_sport</title>
<g id="Camada_2_1_">
	<path class="st0" d="M19.1,12.4H6.6c-1.5,0-2.7-1.1-2.7-2.6c0,0,0-0.1,0-0.1C3.9,8.2,5,7,6.5,7c0,0,0.1,0,0.1,0H20
		c2.7,0,3.6,0.9,3.6,0.9l9,4.5c1.8,0.9,3.6,3.6,3.6,3.6l0,0c0,0,1.8,2.7,1.8,4.5c0,1-0.3,1.9-0.9,2.7l-14.4,9l7.2,9.9
		c0.6,0.8,0.9,1.7,0.9,2.7c-0.1,1.1-0.8,2.2-1.8,2.7L8.4,51.9c0,0-3.6,0.9-4.5-1.8c-0.9-2.7,1.8-4.5,1.8-4.5l16.2-2.7L12,33
		c0,0-0.9-0.9-0.9-3.6c-0.1-1.4,0.6-2.8,1.8-3.6L26.3,16L19.1,12.4z M16.5,50.1L9.3,61.7c0,0-1.8,2.7,0.9,4.5s4.5-0.9,4.5-0.9
		l9.6-16.9 M32.6,26c0,0,0.9,7,4.5,7.9h12.6c0,0,1.8,0,1.8-2.7s-1.8-2.7-1.8-2.7h-9.9L38,22.2 M46,5.2c-3.5,0-6.3,2.8-6.3,6.3
		s2.8,6.3,6.3,6.3c3.5,0,6.3-2.8,6.3-6.3C52.3,8,49.5,5.2,46,5.2L46,5.2z"/>
</g>
</svg>
