<svg id="Camada_4" data-name="Camada 4" xmlns="http://www.w3.org/2000/svg" viewBox="0 0 67.15 70.99"
style="g {
	display: none;
}
g:target {
	display: inline;
}">
    <title>icons</title>
    <g id="teste">
        <path d="M43.4,13.91s19.47-17,26.78-8.52-3.65,24.35-7.31,28c-4.86,3.65-12.17,0-12.17,0L15.39,68.7s-3.65,
        1.21-6.08-1.22-1.22-6.09-1.22-6.09L43.4,26.08C38.53,18.78,43.4,13.91,43.4,13.91ZM36.7,47.39l5.48-.61L64.09
        ,68.7A4.31,4.31,0,0,0,69,67.48c2.44-2.44,1.22-6.09,1.22-6.09L46.44,37.65m-7.31-7.31-25-24.95C6.87,13.91,13
        ,23.65,13,23.65L29.39,40.08" transform="translate(-6.63 -0.35)" 
        style="fill:none;stroke:#fff;stroke-linejoin:round;stroke-width:2.3000000000000003px"/>

        <path d="M43.4,13.91s19.47-17,26.78-8.52-3.65,24.35-7.31,28c-4.86,3.65-12.17,0-12.17,0L15.39,68.7s-3.65,1.
        21-6.08-1.22-1.22-6.09-1.22-6.09L43.4,26.08C38.53,18.78,43.4,13.91,43.4,13.91ZM36.7,47.39l5.48-.61L64.09,
        68.7A4.31,4.31,0,0,0,69,67.48c2.44-2.44,1.22-6.09,1.22-6.09L46.44,37.65m-7.31-7.31-25-24.95C6.87,13.91,13,
        23.65,13,23.65L29.39,40.08" transform="translate(-6.63 -0.35)" 
        style="fill:none;stroke:#fff;stroke-linejoin:round;stroke-width:2.3000000000000003px"/>
    </g>

    <g id="teste2">
        <path d="M29.47,9.5h-14a2.94,2.94,0,0,1-3-3,2.94,2.94,0,0,1,3-3h15c3,0,4,1,4,1l10,5c2,1,4,4,4,4h0s2,3,2,
        5a4.38,4.38,0,0,1-1,3l-16,10,8,11a4.38,4.38,0,0,1,1,3,3.7,3.7,0,0,1-2,3l-23,5s-4,1-5-2,2-5,2-5l18-3-11-11s-
        1-1-1-4a4.33,4.33,0,0,1,2-4l15-11Zm-3,42-8,13s-2,3,1,5,5-1,5-1l10.7-18.85m9.25-25s1,7.85,5,8.85h14s2,0,2-3
        -2-3-2-3h-11l-2-7m9-19a7,7,0,1,0,7,7A7,7,0,0,0,59.47,1.5Z" transform="translate(-6.63 -0.35)" 
        style="fill:none;stroke:#fff;stroke-linejoin:round;stroke-width:2.3000000000000003px"/>
    </g>
</svg>