<svg id="Camada_3" data-name="Camada 3" xmlns="http://www.w3.org/2000/svg" viewBox="0 0 57.01 57.88"><title>icon_food</title><path d="M31,11S47-3,53,4s-3,20-6,23c-4,3-10,0-10,0L8,56s-3,1-5-1-1-5-1-5L31,21C27,15,31,11,31,11ZM25.5,38.5,30,38,48,56a3.53,3.53,0,0,0,4-1c2-2,1-5,1-5L33.5,30.5m-6-6L7,4C1,11,6,19,6,19L19.5,32.5" style="fill:none;stroke:#ffffff;stroke-linejoin:round;stroke-width:2.3px"/><path d="M31,11S47-3,53,4s-3,20-6,23c-4,3-10,0-10,0L8,56s-3,1-5-1-1-5-1-5L31,21C27,15,31,11,31,11ZM25.5,38.5,30,38,48,56a3.53,3.53,0,0,0,4-1c2-2,1-5,1-5L33.5,30.5m-6-6L7,4C1,11,6,19,6,19L19.5,32.5" style="fill:none;stroke:#ffffff;stroke-linejoin:round;stroke-width:2.3px"/></svg>